<svg id="Camada_1" xmlns="http://www.w3.org/2000/svg" viewBox="0 0 200 40.3"><style>.st0{fill:#fff}.st1{fill:#f8c800}.st2{fill:#c34494}.st3{fill:#00aeba}.st4{fill:#6d6bac}.st5{fill:#eb7c1e}.st6{fill:#009d4d}.st7{fill:#f36078}.st8{fill:#d81848}.st9{fill:#d8e100}.st10{fill:#c88a66}.st11{fill:#8700a4}.st12{fill:#92d4ac}.st13{fill:#ffae76}.st14{fill:#008bbb}.st15{fill:#4ecade}</style><path class="st0" d="M200 16c0-4.6-2.8-5.9-4.9-6.5-1.6-.4-3.7-.8-5.1-.8-.7 0-1.3.1-1.8.3-.5.1-.9.2-1.3.4-.6-.1-1.2-.1-1.7-.1-1.2 0-2.5.2-3.7.5-2.7.6-5.4 2-7.6 3.9-1.7-3-4.9-4.7-9.2-4.7-.9 0-1.9.1-2.8.2v-.5c0-1.6.1-2.5.1-2.9v-.7c0-3.5-2.5-5.1-4.9-5.1-1.5 0-4.4.2-6.1.6-.1 0-.2.1-.3.1-.1 0-.3.1-.4.1-4.4 1.1-4.6 5.3-4.6 6.7l-.1 1.2c0 .4 0 .8-.1 1.2-1.4-.5-3-.8-4.7-.8-1.5 0-2.9.2-4.3.6-.2.1-.5.1-.7.2-.8-.5-1.8-.8-2.9-.8-1.4 0-4 .1-5.8.5V7.9c0-1.8-.2-4.3-2.2-6.1-1.7-1.6-3.8-1.8-5.7-1.8-1 0-2 .1-2.8.4-3.8.8-6.1 3.7-6.1 7.9 0 .6 0 1.1.1 1.6-1 0-2.1.2-3 .4-.9-.8-2.1-1.3-3.5-1.3-1.5 0-4.4.2-6.1.6-.1 0-.2.1-.3.1-.1 0-.3.1-.4.1-.7.2-1.2.4-1.7.7-.9-.7-2.3-1.1-4.2-1.1-1.2 0-2.6.2-3.4.5-.1 0-.2.1-.3.1-.2 0-.3.1-.4.1-1.3.3-2.4.8-3.2 1.4-.6-.6-1.3-1.1-2.2-1.4-1.5-.6-3-.7-4.1-.7-1 0-1.9.1-2.6.3-.7.1-1.4.4-2.2.8-.5.3-.9.6-1.2.9 0-.6.1-1 .1-1.2v-.8c0-3.5-2.3-5.8-5.7-5.8-1.5 0-3.4 0-5.2.5-1 .2-1.8.5-2.5.9-.3-1.1-.8-2.3-1.9-3.2C54.7.2 52.6 0 50.7 0c-1 0-2 .1-2.8.4-3.8.8-6.1 3.7-6.1 7.9 0 1.3.2 2.4.5 3.4-1.9-1.3-4.4-2.3-7.8-2.5h-.6c-1.4 0-2.7.2-4 .5-6.6 1.5-11.6 7.1-12 14.1-.3 0-.6.1-1 .1v-3.5c0-4 .2-8 .6-11.9.1-.9.1-1.6.1-2.2v-.7c-.1-2.8-2.2-5-5-5.2-.9-.1-1.9-.1-3-.1H7.8c-.8.1-1.4.2-2 .4-3 .6-5 2.8-5.3 6.1C0 13.9-.1 20.4.2 26.6c.1 2.7.4 5.5.7 8.2.4 3.2 2.8 5.4 6.1 5.5h.6c3 0 9.2-.4 12.5-.9 2-.2 3.4-1.1 4.3-2.1 2.4 1.6 5.1 2.6 8.1 2.7h.9c4 0 7.7-1 10.2-2.8 1.3 1.6 3.3 2.1 4.7 2.3.9.1 1.9.2 2.8.2 3.6 0 5.2-1.6 6-3.2 1 2.1 3 3.4 5.6 3.4 1.3 0 2.6-.1 3.9-.3 2.1-.3 3.7-1.3 4.6-2.9 1.9 2.2 4.9 3.4 8.5 3.4 1.7 0 3.4-.3 5-.7 1 .6 2.1 1 3.4 1 1.6 0 4.2-.3 6.4-1.2.5-.2 1-.5 1.4-.7 1.3.9 2.8 1.2 3.9 1.3.6.1 1.2.1 1.7.1s1.1 0 1.7-.1c1-.1 2.3-.2 3.6-1 1.8-1.1 2.8-2.9 2.8-5.1v-.8c0-.4-.1-1-.1-1.8-.1-1.1-.3-2.7-.4-4.9.5-.1 1-.3 1.5-.4V27c0 2.3.1 4.3.2 6.2.3 5.1 4 6.3 6.2 6.5.9.1 1.9.2 2.8.2 2.3 0 3.8-.7 4.8-1.6 1.3 1.1 3 1.4 4.1 1.5.6.1 1.2.1 1.7.1s1.1 0 1.7-.1c1-.1 2.3-.2 3.6-1 .4-.2.7-.5 1-.8.8.6 1.7 1.1 2.8 1.3 1.5.3 3.3.5 4.5.5 1.7 0 3.3-.6 4.4-1.7 1.3 1.1 3 1.5 4.2 1.6.6.1 1.1.1 1.7.1.5 0 1.1 0 1.7-.1 2.2-.1 3.7-.8 4.6-1.7.8.6 1.7 1.1 2.8 1.3 1.4.3 3.4.5 4.5.5 2.1 0 3.8-.9 5-2.4 2.2 1.8 5.1 2.8 8.4 2.8 1.8 0 3.5-.3 5.1-.9.6.3 1.4.5 2.3.7h.1c.6.1 1.3.1 1.9.1.7 0 1.6 0 2.4-.1 2.4-.3 5.4-1.7 6-6.3.6-4.7.9-10.7.9-16.5V16z"/><path class="st1" d="M185.5 20.6c.7 0 1.4.1 2.1.4 0 2-.2 4-.3 5.9-.7.6-1.4 1-2.1 1.3 1.1-.2 2.2-.8 3.3-1.8.1-2.1.3-4.4.3-6.6-.8-.3-1.7-.6-2.8-.6-3.4 0-5.3 3.3-5.3 5.6v.4c.3-1.8 1.9-4.6 4.8-4.6z"/><path class="st1" d="M195.2 31.9c-.2 1.6-.7 2.2-2.1 2.4-.5.1-1.1.1-1.8.1h-1.4c-1.5-.2-1.7-.8-1.7-2-1.8 1.4-4 2.3-6.4 2.3-5.4 0-8.6-3.7-8.6-8.7 0-6 4.2-10.9 9.1-12.3-5.7 1.2-10.4 6.8-10.4 13.1 0 5.6 3.7 9.3 9.2 9.3 2.1 0 4-.6 5.9-1.8.2.8.7 1.3 2.1 1.5h1.4c.6 0 1.3 0 1.8-.1 1.9-.2 2.4-1.2 2.7-2.9.6-4.6.9-10.4.9-16v-.2c.1 4.8-.1 10.4-.7 15.3z"/><path class="st2" d="M194.1 13.3c-1.3-.4-3.1-.6-4.1-.6-.3 0-.5.1-.7.2-.3.2-.4.5-.5 1.2-.3-.1-.6-.2-1-.3-.9-.3-1.8-.4-2.7-.4-.9 0-1.9.1-2.8.4-4.9 1.4-9.1 6.3-9.1 12.3 0 5 3.3 8.7 8.6 8.7 2.4 0 4.5-.8 6.4-2.3 0 1.2.1 1.8 1.7 2h1.4c.6 0 1.3 0 1.8-.1 1.5-.2 1.9-.8 2.1-2.4.6-4.9.9-10.5.9-15.3v-.6c0-2.1-.6-2.5-2-2.8zm-5.5 13.1c-1 1-2.2 1.6-3.3 1.8-.5.2-1 .2-1.4.2-2 0-3-1-3-2.8v-.8c0-2.2 1.9-5.6 5.3-5.6 1.1 0 2 .3 2.8.6-.2 2.2-.3 4.4-.4 6.6z"/><path class="st3" d="M20 34.1c-3.3.5-9.9.9-12.3.9-.9 0-1.6-.4-1.8-1.6-.3-2.6-.5-5.2-.6-7.9-.3-6.2-.1-12.6.3-19.1.1-1 .4-1.6 1.2-1.9-1.5.2-2.2 1-2.4 2.6-.5 6.9-.6 13.2-.3 19.3.1 2.7.3 5.3.6 7.9.1.9.6 2 2.3 2.1h.4c2.8 0 8.9-.4 11.9-.9.6-.1 2.3-.3 2.3-2.3v-1.3.5c.2 1.2-.4 1.6-1.6 1.7z"/><path class="st1" d="M21.8 31.2c0-.7-.1-1.3-.3-2-.3-1.2-.6-1.7-1.8-1.6-.3 0-3.2.5-6.6.7l-.1-1.9c-.1-1.7-.1-3.3-.1-4.9V20c0-4.5.3-8.8.6-12.6 0-.3.1-.6.1-.9v-.6c0-.6-.4-1.4-1.5-1.5-1.4-.1-2.9-.2-4.3-.1-.5 0-.8.1-1.1.2-.7.3-1 .9-1.1 1.9-.4 6.5-.6 12.9-.3 19.2.1 2.6.3 5.3.6 7.9.2 1.1.9 1.5 1.8 1.5 2.4.1 9-.4 12.3-.8 1.2-.1 1.8-.6 1.8-1.7v-1.3z"/><path class="st4" d="M50.7 11.3c-2.8 0-3.8-.8-3.8-3.7 0-1.8.5-2.9 1.9-3.3-2.1.4-3.1 1.7-3.1 4.1 0 3.2 1.2 4.3 4.4 4.3 3.1 0 4.5-1.3 4.5-4v-.4c-.1 1.7-.9 3-3.9 3zm.8 22.9c-.8 0-1.6 0-2.3-.1-1.7-.2-2-.8-2.1-2.2-.1-2-.2-4-.2-6 0-3.2.1-6.3.3-9.6 0-1.1.1-1.9.9-2.3-.1 0-.2 0-.3.1-1.7.3-1.8 1.9-1.8 3-.2 3.5-.3 6.7-.3 9.6 0 2.2.1 4.2.2 6 .1 1.6.6 2.6 2.6 2.8.8.1 1.6.1 2.4.1 2.5 0 2.7-1 2.9-2.9.4-5.6.5-10.5.5-16.6 0 5.7-.1 10.4-.5 15.8-.1 1.8-.2 2.3-2.3 2.3z"/><path class="st5" d="M50.7 3.9c-.8 0-1.4.1-1.9.3-1.3.5-1.8 1.6-1.8 3.3 0 2.9.9 3.7 3.8 3.7 3 0 3.8-1.3 3.9-3v-.4c-.1-3.2-1.2-3.9-4-3.9zm2.7 9.8H52c-1.2 0-2.5.1-3.4.3-.2 0-.3.1-.4.1-.7.3-.8 1.2-.9 2.3-.2 3.3-.3 6.4-.3 9.6 0 2 0 4 .2 6 .1 1.4.4 2.1 2.1 2.2.8.1 1.6.1 2.3.1 2.1 0 2.1-.6 2.3-2.3.4-5.4.5-10.1.5-15.8v-.7c-.1-1.5-.2-1.8-1-1.8z"/><path class="st6" d="M69.5 20.9c-.7.1-1.8.1-2.2.1 0 .4 0 .9.1 1.4.5 0 1.1-.1 1.6-.1 1.5-.1 2.2-.7 2.5-2.1.1-.9.2-1.9.2-2.5v-.3c0 .6-.1 1.3-.2 1.9-.2 1.1-.8 1.5-2 1.6zm-3.2 13.3c-1.1.2-2.1.3-3.2.3s-1.6-.4-1.7-1.7c-.5-4-.9-7.8-1.2-11.9l-1.1-.1c-1.2-.1-1.6-.4-1.8-1.7 0-.6-.1-1.3-.1-1.7 0-1.2.2-1.7.9-2-1.7.3-2.1 1.1-2.1 2.8 0 .5.1 1.3.1 1.8.2 1.7 1 2.1 2.3 2.2l.6.1c.2 3.4.6 7.3 1.1 11.4.2 1.6.9 2.3 2.3 2.3 1.1 0 2.2-.1 3.3-.3 1.4-.2 2-.9 2-2.2V33c.1.6-.3 1-1.4 1.2zm-6.4-20.5c0-1.1 0-2.1.1-3.3.1-1.3.3-2.1 1.6-2.5-2.1.4-2.7 1.3-2.8 3.3v.4c0 1.1-.1 2-.1 2.9v.5c.3-.1.7-.1 1.2-.1v-1.2zm7.7 15c.1 1.8.2 3.3.2 4.1v-.3c0-1-.3-6.4-.5-10.1.1 1.8.2 4.2.3 6.3zm-8.9-13.6c-.2 0-.4.1-.6.2.2-.1.4-.1.6-.2z"/><path class="st7" d="M70.2 15.2c-1-.2-2-.2-2.9-.3.1-1.7.2-3.9.3-4.9v-.5c0-1.2-.4-1.9-1.7-1.9-2 0-3.3.1-4.1.4-1.3.4-1.5 1.2-1.6 2.5 0 1.2-.1 2.3-.1 3.3V15c-.5 0-.9.1-1.2.1v.1c-.2 0-.4.1-.6.1-.7.3-.9.9-.9 2 0 .4 0 1.1.1 1.7.1 1.3.6 1.6 1.8 1.7l1.1.1c.3 4.1.6 7.9 1.2 11.9.2 1.3.7 1.7 1.7 1.7 1.1 0 2.1-.1 3.2-.3 1.1-.2 1.4-.6 1.5-1.4 0-.8-.1-2.3-.2-4.1-.1-2.1-.2-4.5-.3-6.3 0-.5 0-.9-.1-1.4.4 0 1.5-.1 2.2-.2 1.2-.1 1.7-.5 1.9-1.6.1-.6.2-1.3.2-1.9v-.5c0-.9-.4-1.4-1.5-1.5z"/><path class="st8" d="M93.2 33.9c-1.4.6-3.4.9-4.7.9-1 0-1.5-.5-1.5-1.3v-1.1c-2 1.5-4.5 2.2-6.9 2.2-2.3 0-6.5-.6-6.5-6 0-3 .3-8.3 1-13.3.1-1 .5-1.5 1.2-1.7-1.2.2-2.2.7-2.4 2.4-.7 5-1 10.3-1 13.4 0 4.3 2.5 6.6 7.1 6.6 2.3 0 4.4-.6 6.2-1.6 0 1.1.9 1.9 2.1 1.9 1.3 0 3.4-.3 4.9-.9 1.5-.6 1.5-1.8 1.6-3.1V29v2.5c0 1.3-.1 2-1.1 2.4z"/><path class="st8" d="M86.5 15.8c0-1 .4-1.6 1.8-2-.1 0-.3.1-.4.1-1.9.5-2.6 1.2-2.6 2.7 0 .4.1 1 .1 2 .2 1.9.5 5.1.5 8.5-.8.5-1.5.8-2.3 1.1 1.1-.2 2.3-.7 3.5-1.5 0-5.2-.6-9.9-.6-10.9z"/><path class="st9" d="M93.6 15.2c-.2-1.5-.9-1.8-2.5-1.8-.8 0-1.8.2-2.5.3-.1 0-.2.1-.4.1-1.4.4-1.8 1-1.8 2 0 1.1.6 5.7.6 10.8-1.2.8-2.4 1.3-3.5 1.5-.4.1-.8.1-1.2.1-1 0-1.6-.8-1.6-2.1V26c0-4 .5-8.2.7-9.9v-.5c0-1-.4-1.5-1.3-1.8-.8-.3-1.8-.4-2.7-.4-.7 0-1.3.1-1.7.2-.7.3-1 .8-1.2 1.7-.7 5-1 10.3-1 13.3 0 5.4 4.2 6 6.5 6 2.4 0 4.9-.7 6.9-2.2v1.1c0 .8.5 1.3 1.5 1.3 1.3 0 3.3-.3 4.7-.9 1.1-.4 1.1-1.2 1.2-2.5v-3.1c.1-4.4-.2-9-.7-13.1z"/><path class="st10" d="M103.2 34.2h-2.7c-1.7-.1-2.1-.8-2.2-2.1-.5-4.2-.8-8.7-.8-13.1v-3c0-1.2.1-2.1.9-2.4-.2 0-.4.1-.5.1-1.6.4-1.6 1.7-1.6 3v3.1c0 4.1.3 8.5.8 13.1.2 1.6.7 2.5 2.8 2.6h2.8c1.4-.1 2.8-.4 2.8-2.2v-.4c-.2.8-.7 1.2-2.3 1.3zm1.6-12.4v1.1c.4-.1 1.1-.3 1.6-.4 2.4-.6 5.6-1.3 6.6-3.1.3-.5.4-1 .3-1.6-.5 2.7-7.7 3.3-8.5 4z"/><path class="st10" d="M105.3 31.9c0 .4.1.8.1 1v-.3c0-.8-.6-4.3-.6-9.7 0 4.2.4 7.3.5 9z"/><path class="st11" d="M113.3 16.8c-.4-1.3-1.1-2.9-2.6-2.9-.8 0-1.6.1-2.3.3-1.3.4-2.4 1.1-3.4 2 0-.3.1-1 .1-1.6v-.5c0-.7-.2-1.1-1.1-1.1-1.4 0-3.9.2-5.2.5-.1 0-.2 0-.2.1-.9.3-.9 1.2-.9 2.4v3c0 4.4.3 8.8.8 13.1.2 1.3.5 2 2.2 2.1h2.7c1.6-.1 2.1-.5 2.2-1.2 0-.3-.1-.6-.1-1-.2-1.7-.5-4.9-.5-9v-1.1c.8-.7 8-1.2 8.5-4-.1-.4-.1-.7-.2-1.1z"/><path class="st12" d="M119.3 11.3c-2.8 0-3.8-.8-3.8-3.7 0-1.8.5-2.9 1.9-3.3-2.1.4-3.1 1.7-3.1 4.1 0 3.2 1.2 4.3 4.4 4.3 3.1 0 4.5-1.3 4.5-4v-.4c-.1 1.7-.9 3-3.9 3zm.8 22.9c-.8 0-1.6 0-2.3-.1-1.7-.2-2-.8-2.1-2.2-.1-2-.2-4-.2-6 0-3.2.1-6.3.3-9.6 0-1.1.1-1.9.9-2.3-.1 0-.2 0-.3.1-1.7.3-1.8 1.9-1.8 3-.2 3.5-.3 6.7-.3 9.6 0 2.2.1 4.2.2 6 .1 1.6.6 2.6 2.6 2.8.8.1 1.6.1 2.4.1 2.5 0 2.7-1 2.9-2.9.4-5.6.5-10.5.5-16.6 0 5.7-.1 10.4-.5 15.8-.2 1.8-.2 2.3-2.3 2.3z"/><path class="st13" d="M119.3 3.9c-.8 0-1.4.1-1.9.3-1.3.5-1.9 1.6-1.9 3.3 0 2.9 1 3.7 3.8 3.7 3 0 3.8-1.3 3.9-3v-.4c0-3.2-1.1-3.9-3.9-3.9zm2.6 9.8h-1.4c-1.2 0-2.5.1-3.4.3-.2 0-.3.1-.4.1-.7.3-.8 1.2-.9 2.3-.2 3.3-.3 6.4-.3 9.6 0 2 0 4 .2 6 .1 1.4.4 2.1 2.1 2.2.8.1 1.6.1 2.3.1 2.1 0 2.1-.6 2.3-2.3.4-5.4.5-10.1.5-15.8v-.7c0-1.5-.1-1.8-1-1.8z"/><path class="st14" d="M132.2 34.2h-2.7c-1.7-.1-2.1-.8-2.2-2.1-.5-4.2-.8-8.7-.8-13.1v-3c0-1.2.1-2.1.9-2.4-.2 0-.4.1-.5.1-1.6.4-1.6 1.7-1.6 3v3.1c0 4.1.3 8.5.8 13.1.2 1.6.7 2.5 2.8 2.6h2.8c1.4-.1 2.8-.4 2.8-2.2v-.4c-.3.8-.8 1.2-2.3 1.3zm12.3.1c-.8 0-2.4-.2-3.6-.4-1-.2-1.3-.8-1.3-1.8 0-1.2.5-3.4.5-10.3 0-1.3-.5-2.2-1.6-2.2-1.4 0-3 .5-4.6 1.6v1.1c1.4-.9 2.8-1.3 4-1.3.8 0 1 .9 1 1.6 0 4.9-.2 7.4-.4 8.9-.1.6-.1 1.1-.1 1.5 0 1.4.6 2.2 1.8 2.4 1.2.2 2.8.4 3.7.4 2.1 0 2.3-1.7 2.4-2.5.7-5 1-10.3 1-13.4v-.1c0 3.1-.3 8-1 12.6-.2.9-.4 1.9-1.8 1.9z"/><path class="st8" d="M140.7 13.1c-1.1 0-2.2.2-3.2.4-1.3.4-2.5.9-3.6 1.7 0-.2 0-.5.1-.7v-.4c0-.7-.2-1.1-1.1-1.1-1.4 0-3.9.2-5.2.5-.1 0-.2 0-.2.1-.9.3-.9 1.2-.9 2.4v3c0 4.4.3 8.8.8 13.1.2 1.3.5 2 2.2 2.1h2.7c1.6-.1 2.1-.5 2.2-1.2v-.4c0-.3 0-.5-.1-.9-.3-3.1-.5-6.3-.5-9.6V21c1.6-1.1 3.2-1.6 4.6-1.6 1.1 0 1.6.9 1.6 2.2 0 6.9-.5 9.1-.5 10.3 0 1 .4 1.6 1.3 1.8 1.2.3 2.8.4 3.6.4 1.4 0 1.7-1 1.8-1.9.6-4.6.9-9.5 1-12.6v-.7c-.1-5.2-4.3-5.8-6.6-5.8z"/><path class="st5" d="M168.5 34.2c-.8 0-2.4-.2-3.6-.4-1-.2-1.3-.8-1.3-1.8 0-.6.5-4.4.5-10.3 0-1.3-.5-2.2-1.6-2.2-1.3 0-2.9.5-4.5 1.6v1.1c1.4-.8 2.7-1.3 3.9-1.3.8 0 1 .9 1 1.6 0 4.5-.3 7.7-.4 9.3 0 .6-.1.9-.1 1.1 0 1.4.6 2.2 1.8 2.4 1.3.3 2.9.4 3.7.4 2.1 0 2.3-1.7 2.4-2.5.7-5 1-10.3 1-13.4v-.1c0 3.1-.3 8-1 12.6-.2 1-.4 1.9-1.8 1.9zm-12.4 0h-2.7c-1.7-.1-2.1-.8-2.2-2.1-.4-3.5-.8-9.8-.8-16.1 0-3.1.2-6.2.3-9 0-1.2.1-2.1.9-2.4-.2 0-.4.1-.5.1-1.6.4-1.6 1.7-1.6 3l-.1 1.2c-.1 2.5-.2 5.1-.2 7.8 0 6.4.4 12.7.8 16.2.2 1.6.7 2.5 2.8 2.6h2.8c1.4-.1 2.8-.4 2.8-2.2v-.4c-.2.8-.7 1.2-2.3 1.3z"/><path class="st5" d="M158.3 32.4v.1c0-.3 0-.5-.1-.9-.2-2.3-.4-5.8-.4-9.7.1 4.7.3 8.3.5 10.5z"/><path class="st15" d="M164.7 13c-1.1 0-2.2.2-3.2.4-1.3.4-2.5.9-3.6 1.7 0-3.4.2-7.9.2-9.6V5c0-.7-.1-1.2-1-1.2-1.4 0-3.9.2-5.2.5-.1 0-.2 0-.2.1-.9.3-.9 1.2-.9 2.4-.1 2.8-.3 5.9-.3 9 0 6.3.4 12.6.8 16.1.2 1.3.5 2 2.2 2.1h2.7c1.6-.1 2.1-.5 2.2-1.2v-.5c-.2-2.2-.4-5.8-.4-10.4v-1.1c1.6-1 3.2-1.6 4.5-1.6 1.1 0 1.6.9 1.6 2.2 0 6-.5 9.7-.5 10.3 0 1 .4 1.6 1.3 1.8 1.2.3 2.9.4 3.6.4 1.4 0 1.7-1 1.8-1.9.6-4.6.9-9.5 1-12.6v-.7c-.1-5.1-4.3-5.7-6.6-5.7z"/><path class="st5" d="M41.9 32.3c-1.7 1.5-5 2.5-8.8 2.4-5.5-.2-10.4-4.6-10.1-10.9.2-5.1 3.7-8.9 8-10.1-5.1 1.1-9 5.4-9.2 10.9-.1 3.1 1 6.1 3.1 8.2 2 2.1 4.7 3.2 7.6 3.3h.7c3.5 0 6.7-.9 8.5-2.5.6-.5.9-1.1.9-1.8v-.6c0 .3-.2.7-.7 1.1z"/><path class="st5" d="M34.3 19c-2-.1-3.9 1.2-4.6 2.9h.5c.8-1 2-1.6 3.2-1.6h.1c.8 0 1.8.4 2.4 1.3.5-.1 1.1-.1 1.6-.2-.5-1.6-1.9-2.4-3.2-2.4zm8.9 5.7c-2.9.9-8.4 1.5-12.9 1.5.4.5.9 1 1.5 1.3 3.9-.2 8.3-.7 10.9-1.5 1-.3 1.5-1.1 1.5-2.1v-.7c.1.7-.2 1.2-1 1.5z"/><path class="st3" d="M34.4 13.2c-1.2 0-2.3.1-3.4.4-4.3 1.2-7.8 5-8 10.1-.2 6.3 4.6 10.7 10.1 10.9 3.8.1 7.1-.8 8.8-2.4.5-.4.7-.8.7-1.2v-.2c0-.3 0-.5-.1-.8-.1-.6-.2-1.3-.4-1.9-.2-.6-.4-.9-.8-1-.2 0-.4.1-.7.2-.1 0-.1.1-.2.1-.7.3-1.4.5-2.2.7-1.1.2-2.2.4-3.1.3-1.2 0-2.4-.4-3.3-1-.6-.4-1.1-.8-1.5-1.3 4.5-.1 10-.6 12.9-1.5.8-.3 1.1-.8 1.1-1.4v-.1c.1-3-2.2-9.6-9.9-9.9zm1.6 8.4c-1.8.2-3.9.3-5.8.3h-.5c.7-1.8 2.6-3 4.6-2.9 1.3 0 2.7.8 3.3 2.4-.5.1-1 .2-1.6.2z"/></svg>