<svg version="1.1" xmlns="http://www.w3.org/2000/svg" xmlns:xlink="http://www.w3.org/1999/xlink" x="0px" y="0px" viewBox="0 0 1902.6 75" style="enable-background:new 0 0 1902.6 75;" xml:space="preserve">
            <path fill="#F6F7F8" d="M221.9,75c2.5-3.6,4.9-7.2,7.4-10.8c-2.3,0.5-4.5,1.1-6.8,1.6c11.5-2.7,29.6-6.8,52.2-10.7c40-7,68.4-9.2,131.8-14.8
	c48.2-4.3,72.3-6.4,82.1-7.4C607.5,20.5,664.8,2.5,756.7,0c22.4-0.6,41.4-0.1,44.1,0c39.5,1.1,69.4,4.8,103.2,8.9
	c9,1.1,32.5,4.1,61,8.9c7.2,1.2,14.6,2.5,22.6,4c13.9,2.6,26.7,5.3,38.2,7.8c29.2,6.4,52.4,12.6,54.8,13.2
	c24.5,6.4,94.4,16.4,277.1,32.2c-192,1.8-384,2.6-576,2.6C595,77.6,408.5,76.7,221.9,75z"></path>
        <path fill="#EDEFF2" d="M0,75c0-13,0-26,0-39c48.9-8.3,122.7-17.7,212.9-16.4c61.1,0.9,121.6,9.9,243,24.1c114.5,13.4,179,21,241.4,25
	c70.7,4.5,136.7,4.4,358.6-13c309.9-24.3,307.6-33.9,412.5-36.1c102.8-2.2,251.5,3.9,434.2,45.1c0,3.4,0,6.9,0,10.3
	c-608.1,0-1216.3,0-1824.4,0C52.1,75,26,75,0,75z"></path>
    </svg>